<svg width="43" height="28" viewBox="0 0 43 28" fill="none" xmlns="http://www.w3.org/2000/svg">
  <path
    d="M12.0119 10.9227C12.0119 9.81604 11.116 8.9214 10.0106 8.9214C8.90531 8.9214 8.00928 9.81604 8.00928 10.9227C8.00928 12.028 8.90531 12.9241 10.0106 12.9241C11.116 12.9241 12.0119 12.028 12.0119 10.9227Z"
    fill="#ffffff" />
  <path
    d="M33.844 20.416C33.844 19.3107 32.9479 18.4147 31.8426 18.4147C30.7373 18.4147 29.8413 19.3107 29.8413 20.416C29.8413 21.5214 30.7373 22.4187 31.8426 22.4187C32.9479 22.4187 33.844 21.5214 33.844 20.416Z"
    fill="#ffffff" />
  <path
    d="M11.4307 9.44667C11.4307 9.44667 11.5467 9.65865 11.7694 10.0613C11.98 10.4586 12.3107 11.12 12.2373 12.068C12.1893 13 11.436 14.1813 10.0894 14.6373C8.78536 15.1306 6.87071 14.7533 5.70004 13.316C4.50404 11.9333 4.08407 9.84396 4.46007 7.83462C4.78673 5.83062 6.03074 3.67999 8.06274 2.40799C10.0547 1.12266 12.6094 0.585297 15.1521 1.04263C16.4187 1.27196 17.6947 1.77598 18.8067 2.56398C19.9107 3.33865 20.8507 4.35733 21.5667 5.51066C23.0014 7.828 23.4801 10.5333 23.1654 13.036C22.8467 15.5747 21.6307 17.7933 20.1093 19.4413C17.0253 22.7893 12.856 23.9733 9.63468 23.872C6.36134 23.808 3.90802 22.8 2.34802 22.016C1.56269 21.6173 0.98671 21.2493 0.60271 20.9973C0.225377 20.736 0.0267334 20.5973 0.0267334 20.5973C0.0267334 20.5973 0.245369 20.7 0.661369 20.892C1.08004 21.076 1.70002 21.3426 2.51736 21.612C4.13869 22.1453 6.61069 22.756 9.58136 22.472C11.06 22.336 12.6347 21.9414 14.1601 21.1987C15.6787 20.444 17.1547 19.34 18.3227 17.8933C19.4867 16.4533 20.3294 14.6573 20.5 12.7333C20.6774 10.8067 20.2574 8.70664 19.1827 6.98397C18.1081 5.24797 16.4867 4.05996 14.6334 3.67329C12.7814 3.26663 10.8107 3.57601 9.2934 4.42668C6.21207 6.05068 5.29735 10.316 6.80935 12.46C7.52268 13.568 8.79339 14.0053 9.84672 13.784C10.9094 13.576 11.64 12.772 11.8054 11.9933C11.992 11.2067 11.8041 10.5307 11.6574 10.108C11.5094 9.67466 11.4307 9.44667 11.4307 9.44667Z"
    fill="#ffffff" />
  <path
    d="M33.4747 20.9548C33.4747 20.9548 33.5467 20.7521 33.4947 20.3855C33.44 20.0281 33.1787 19.5001 32.6054 19.1655C32.048 18.8148 31.1893 18.8841 30.5733 19.5174C29.9373 20.1308 29.7134 21.1521 30.12 22.1721C30.4987 23.1895 31.4081 24.1321 32.5827 24.6374C33.7601 25.1548 35.18 25.2028 36.368 24.5788C37.572 23.9761 38.592 22.7348 39.0454 21.2841C39.52 19.8348 39.348 18.2788 38.5334 16.8441C37.7227 15.4308 36.4001 14.3028 34.9494 13.6254C33.5054 12.9454 31.892 12.7481 30.348 12.8575C27.2254 13.0961 24.5201 14.5148 22.5294 16.0148C20.5147 17.5268 19.0947 19.0854 18.1214 20.1534C17.1534 21.2334 16.64 21.8601 16.64 21.8601C16.64 21.8601 17.0053 21.1401 17.7707 19.8908C18.5467 18.6535 19.7014 16.8468 21.6161 14.9521C23.5081 13.0881 26.3267 11.0975 30.076 10.5081C31.9267 10.2281 34.0347 10.3334 36.0214 11.1681C37.9801 11.9881 39.8 13.4294 40.9707 15.4614C41.5507 16.4761 41.9187 17.6068 42.0321 18.7788C42.1427 19.9641 41.9587 21.1215 41.5787 22.1628C40.82 24.2415 39.276 25.9348 37.336 26.7361C35.3734 27.5668 33.2214 27.2321 31.712 26.3428C30.1667 25.4614 29.108 24.0428 28.7733 22.5601C28.6013 21.8201 28.6241 21.0548 28.8547 20.3868C29.0907 19.7068 29.5214 19.1881 30.008 18.8348C30.9854 18.0814 32.2801 18.2415 32.8601 18.8081C33.4761 19.3428 33.6307 19.9881 33.6147 20.3775C33.5894 20.7788 33.4627 20.9521 33.4747 20.9548Z"
    fill="#ffffff" />
  <path
    d="M40.5988 7.18149C40.5988 7.18149 40.2921 7.18554 39.7507 7.19354C39.2107 7.18554 38.4254 7.23084 37.4748 7.32284C35.5681 7.50017 32.9974 8.01882 30.3214 9.04015C27.6494 10.0748 25.3947 11.4122 23.8587 12.5575C23.0921 13.1255 22.4787 13.6175 22.0814 13.9855C21.6761 14.3415 21.4441 14.5442 21.4441 14.5442C21.4441 14.5442 21.6161 14.2882 21.9188 13.8389C22.2214 13.3802 22.7174 12.7549 23.3947 12.0322C24.7361 10.5869 26.9561 8.84018 29.8188 7.73351C32.6854 6.63751 35.504 6.4482 37.468 6.62153C38.4547 6.70553 39.2414 6.83752 39.7748 6.97485C40.3001 7.10552 40.5988 7.18149 40.5988 7.18149Z"
    fill="#ffffff" />
</svg>
  