<svg width="43" height="28" viewBox="0 0 43 28" fill="none" xmlns="http://www.w3.org/2000/svg">
  <path
    d="M30.6547 10.9227C30.6547 9.81604 31.5511 8.9214 32.6563 8.9214C33.762 8.9214 34.6579 9.81604 34.6579 10.9227C34.6579 12.028 33.762 12.9241 32.6563 12.9241C31.5511 12.9241 30.6547 12.028 30.6547 10.9227Z"
    fill="#ffffff" />
  <path
    d="M8.82239 20.416C8.82239 19.3107 9.71879 18.4147 10.824 18.4147C11.9297 18.4147 12.8255 19.3107 12.8255 20.416C12.8255 21.5214 11.9297 22.4187 10.824 22.4187C9.71879 22.4187 8.82239 21.5214 8.82239 20.416Z"
    fill="#ffffff" />
  <path
    d="M31.2365 9.44667C31.2365 9.44667 31.1579 9.67466 31.0089 10.108C30.8631 10.5307 30.6741 11.2067 30.8615 11.9933C31.0266 12.772 31.7574 13.576 32.8198 13.784C33.873 14.0053 35.1433 13.568 35.8579 12.46C37.3698 10.316 36.4547 6.05068 33.373 4.42668C31.8563 3.57601 29.885 3.26663 28.0339 3.67329C26.1798 4.05996 24.5589 5.24797 23.4845 6.98397C22.4089 8.70664 21.9886 10.8067 22.1667 12.7333C22.337 14.6573 23.1803 16.4533 24.3449 17.8933C25.5126 19.34 26.9875 20.444 28.5063 21.1987C30.0318 21.9414 31.6069 22.336 33.0861 22.472C36.0563 22.756 38.5277 22.1453 40.1485 21.612C40.9673 21.3426 41.587 21.076 42.0058 20.892C42.4219 20.7 42.6407 20.5973 42.6407 20.5973C42.6407 20.5973 42.4418 20.736 42.0641 20.9973C41.6798 21.2493 41.1047 21.6173 40.3183 22.016C38.7589 22.8 36.3058 23.808 33.0313 23.872C29.811 23.9733 25.6413 22.7893 22.5574 19.4413C21.0365 17.7933 19.8203 15.5747 19.5017 13.036C19.187 10.5333 19.6657 7.828 21.1006 5.51066C21.8162 4.35733 22.7553 3.33865 23.8594 2.56398C24.9714 1.77598 26.2474 1.27196 27.5141 1.04263C30.0574 0.585297 32.6115 1.12266 34.6042 2.40799C36.6355 3.67999 37.8798 5.83062 38.2074 7.83462C38.5834 9.84396 38.1626 11.9333 36.9667 13.316C35.7965 14.7533 33.8807 15.1306 32.5777 14.6373C31.2303 14.1813 30.4771 13 30.4298 12.068C30.3569 11.12 30.6861 10.4586 30.8974 10.0613C31.1198 9.65865 31.2365 9.44667 31.2365 9.44667Z"
    fill="#ffffff" />
  <path
    d="M9.19222 20.9548C9.20369 20.9521 9.07716 20.7788 9.05169 20.3775C9.03556 19.9881 9.19076 19.3428 9.80689 18.8081C10.387 18.2415 11.6808 18.0814 12.658 18.8348C13.146 19.1881 13.5756 19.7068 13.8121 20.3868C14.0428 21.0548 14.0652 21.8201 13.8933 22.5601C13.5594 24.0428 12.4996 25.4614 10.9553 26.3428C9.44489 27.2321 7.29329 27.5668 5.33036 26.7361C3.39022 25.9348 1.84702 24.2415 1.08756 22.1628C0.708491 21.1215 0.524622 19.9641 0.635022 18.7788C0.747956 17.6068 1.11569 16.4761 1.69596 15.4614C2.86676 13.4294 4.68649 11.9881 6.64489 11.1681C8.63236 10.3334 10.7402 10.2281 12.5902 10.5081C16.3402 11.0975 19.1585 13.0881 21.0512 14.9521C22.9652 16.8468 24.1204 18.6535 24.8965 19.8908C25.6616 21.1401 26.0261 21.8601 26.0261 21.8601C26.0261 21.8601 25.5137 21.2334 24.5454 20.1534C23.5725 19.0854 22.1517 17.5268 20.137 16.0148C18.1465 14.5148 15.4413 13.0961 12.3194 12.8575C10.7746 12.7481 9.16209 12.9454 7.71782 13.6254C6.26622 14.3028 4.94436 15.4308 4.13342 16.8441C3.31836 18.2788 3.14702 19.8348 3.62142 21.2841C4.07409 22.7348 5.09489 23.9761 6.29849 24.5788C7.48702 25.2028 8.90636 25.1548 10.0834 24.6374C11.2589 24.1321 12.1678 23.1895 12.547 22.1721C12.9528 21.1521 12.7288 20.1308 12.0933 19.5174C11.4777 18.8841 10.6184 18.8148 10.0605 19.1655C9.48756 19.5001 9.22662 20.0281 9.17196 20.3855C9.11982 20.7521 9.19222 20.9548 9.19222 20.9548Z"
    fill="#ffffff" />
  <path
    d="M2.06775 7.18149C2.06775 7.18149 2.36668 7.10552 2.89215 6.97485C3.42508 6.83752 4.21202 6.70553 5.19842 6.62153C7.16255 6.4482 9.98122 6.63751 12.8479 7.73351C15.7104 8.84018 17.9303 10.5869 19.2719 12.0322C19.9484 12.7549 20.4448 13.3802 20.7479 13.8389C21.05 14.2882 21.2224 14.5442 21.2224 14.5442C21.2224 14.5442 20.9912 14.3415 20.585 13.9855C20.1875 13.6175 19.5751 13.1255 18.8073 12.5575C17.2724 11.4122 15.0167 10.0748 12.3454 9.04015C9.66935 8.01882 7.09842 7.50017 5.19215 7.32284C4.24122 7.23084 3.45628 7.18554 2.91562 7.19354C2.37508 7.18554 2.06775 7.18149 2.06775 7.18149Z"
    fill="#ffffff" />
</svg>
  