<svg width="285" height="42" viewBox="0 0 285 42" fill="none" xmlns="http://www.w3.org/2000/svg">
  <path
    d="M96.574 17.6482C96.5954 17.6655 96.1694 17.7909 95.7584 18.4069C95.3599 18.9842 95.0298 20.1842 95.6454 21.3829C96.2402 22.5549 98.074 23.2722 99.8027 22.6362C101.516 22.0242 102.865 20.0242 103.108 17.7175C103.403 15.4175 102.579 12.7429 100.747 10.7642C98.9542 8.76952 96.0022 7.72953 93.0068 8.1082C91.5178 8.2922 90.0328 8.80818 88.7479 9.65484C87.4615 10.5175 86.35 11.7095 85.5214 13.1135C83.8531 15.9389 83.4058 19.5575 84.597 22.8269C85.7364 26.1162 88.2714 28.8215 91.236 30.1455C94.2506 31.4615 97.6459 31.4442 100.712 30.6615C103.795 29.8709 106.619 28.5162 109.133 27.0349C111.653 25.5602 113.907 23.9455 115.948 22.4695C120.016 19.4909 123.131 16.8242 125.239 14.9349C127.349 13.0429 128.471 11.9415 128.471 11.9415C128.471 11.9415 127.48 13.1602 125.547 15.2469C123.613 17.3309 120.717 20.2762 116.813 23.5709C114.853 25.2055 112.689 26.9762 110.148 28.6588C107.62 30.3388 104.712 31.9309 101.327 32.9442C97.9703 33.9442 93.935 34.1602 90.176 32.6095C86.4495 31.0309 83.3631 27.7908 81.9536 23.7575C81.2303 21.7548 80.9902 19.5762 81.2282 17.4989C81.4724 15.4229 82.1694 13.4495 83.2246 11.7295C84.2844 10.0135 85.7115 8.55353 87.3776 7.5122C89.0594 6.4762 90.9298 5.90951 92.773 5.75484C96.4563 5.42151 100.118 6.91619 102.189 9.50419C104.277 12.0362 105.02 15.2309 104.493 17.9322C104.013 20.6175 102.267 22.8802 100.068 23.4829C97.9036 24.0775 95.8334 23.0242 95.25 21.5722C94.6782 20.1202 95.1902 18.9002 95.6615 18.3362C96.1574 17.7389 96.5943 17.6695 96.574 17.6482Z"
    fill="#040606" />
  <path
    d="M50.5349 30.556C50.5579 30.564 50.5625 30.2 50.8235 29.5774C51.0713 28.9574 51.6464 28.072 52.7536 27.348C53.8521 26.6614 55.4921 26.0907 57.4177 26.4573C58.364 26.632 59.3803 27.1067 60.1891 27.892C61.0079 28.6693 61.6167 29.7427 61.9489 30.9414C62.5953 33.312 62.1729 36.368 60.0172 38.5987C57.9027 40.7813 54.5224 41.744 51.2412 41.1907C47.8901 40.6693 44.814 38.3294 43.0459 35.2134C41.2917 32.104 40.5912 28.176 41.6516 24.4454C42.662 20.7414 45.1 17.7347 47.8989 15.672C50.7208 13.5974 54.0245 12.4533 57.1598 12.128C63.5073 11.4907 68.9937 13.5413 72.95 15.8253C76.9448 18.1587 79.6531 20.7133 81.462 22.484C83.2609 24.2773 84.165 25.3467 84.165 25.3467C84.165 25.3467 83.1322 24.396 81.1697 22.8094C79.203 21.2467 76.2926 18.9973 72.2958 17.0653C68.3464 15.1653 63.0875 13.6454 57.4631 14.4734C54.6751 14.892 51.9 15.9787 49.5084 17.8173C47.1453 19.648 45.1599 22.2053 44.3516 25.1947C43.5021 28.132 44.0245 31.3467 45.3875 33.9054C46.7724 36.4614 49.1005 38.3453 51.6802 38.8667C54.2614 39.424 56.9792 38.7893 58.6839 37.224C60.3896 35.7027 60.974 33.2387 60.5849 31.2627C60.226 29.2427 58.8161 27.7293 57.2109 27.3187C55.603 26.8493 54.0479 27.196 52.9708 27.728C51.8833 28.288 51.2406 29.0587 50.9317 29.6307C50.6088 30.204 50.5568 30.5653 50.5349 30.556Z"
    fill="#040606" />
  <path
    d="M30.0454 11.8054C30.0454 11.8294 30.3839 11.6854 31.0569 11.768C31.7146 11.8547 32.7225 12.3001 33.4615 13.4107C33.8251 13.9561 34.1271 14.6587 34.1861 15.4934C34.2323 16.3227 33.9631 17.2947 33.3126 18.0467C32.047 19.5707 29.5152 20.3827 27.1037 19.3441C24.7042 18.2627 23.2058 15.4214 23.3641 12.456C23.5408 9.43604 25.3485 6.62271 27.7646 4.59338C32.6141 0.372042 40.2673 -0.990606 47.2022 1.21206C50.661 2.31206 53.7271 4.15606 56.3011 6.30806C58.8823 8.46539 61.0011 10.9267 62.7178 13.4454C64.437 15.9694 65.7402 18.4494 67.1829 20.5747C68.6037 22.7067 70.1777 24.4814 71.9173 25.724C73.6375 26.9707 75.5079 27.6707 77.1875 27.7494C78.8793 27.8361 80.3626 27.4307 81.4323 26.8614C83.6189 25.688 84.1178 24.1774 84.1527 24.2467C84.1527 24.2467 84.1173 24.3254 84.0474 24.4801C83.9807 24.6374 83.8777 24.868 83.699 25.1507C83.3537 25.7107 82.7407 26.5307 81.6553 27.2387C80.5881 27.9561 79.0542 28.5574 77.1813 28.636C75.297 28.72 73.1542 28.12 71.1454 26.8947C69.1282 25.6814 67.2615 23.844 65.6293 21.6947C63.9771 19.556 62.5183 17.1174 60.7949 14.8214C57.3782 10.2587 52.5126 5.85873 46.3542 3.88273C40.2668 1.95073 33.5605 2.98804 29.2637 6.42137C27.0985 8.0747 25.5454 10.3281 25.2735 12.6121C25.0001 14.8801 26.0339 17.1827 27.7251 18.088C29.4027 19.0067 31.5725 18.572 32.6522 17.4547C33.2251 16.9014 33.499 16.188 33.5361 15.5014C33.5569 14.808 33.3621 14.1587 33.0861 13.636C32.5287 12.5667 31.6496 12.0414 31.0324 11.8867C30.4017 11.7307 30.0427 11.8281 30.0454 11.8054Z"
    fill="#040606" />
  <path
    d="M85.223 0.0681492C85.223 0.0681492 84.9688 0.35882 84.5188 0.872153C84.0746 1.38682 83.4755 2.1615 82.8427 3.14816C81.5667 5.11483 80.2688 8.03749 79.8251 11.3722C79.3823 14.7068 79.873 17.8668 80.5912 20.0975C80.9443 21.2161 81.3203 22.1188 81.6146 22.7321C81.9151 23.3455 82.085 23.6921 82.085 23.6921C82.085 23.6921 81.7766 23.4641 81.2615 22.9908C80.7448 22.5175 80.0459 21.7695 79.3307 20.7095C77.8995 18.6375 76.5136 15.0588 77.047 11.0028C77.5912 6.94815 79.8636 3.85481 81.786 2.22814C82.7527 1.39214 83.623 0.852145 84.2454 0.530812C84.8662 0.208145 85.223 0.0681492 85.223 0.0681492Z"
    fill="#040606" />
  <path
    d="M37.5849 30.4294C37.5849 30.4294 37.5079 30.0548 37.4375 29.3588C37.3656 28.6628 37.3344 27.6415 37.4807 26.3761C37.7469 23.8761 38.95 20.2881 41.8183 17.4294C44.6901 14.5734 48.2828 13.3868 50.7844 13.1308C52.0495 12.9894 53.0708 13.0254 53.7661 13.1001C54.4615 13.1748 54.8364 13.2521 54.8364 13.2521C54.8364 13.2521 54.4645 13.3548 53.8052 13.5375C53.1495 13.7215 52.2193 14.0308 51.1344 14.4881C48.9584 15.3908 46.2021 17.0188 43.7953 19.4148C41.388 21.8121 39.7489 24.5601 38.836 26.7321C38.3745 27.8161 38.0609 28.7454 37.8735 29.4001C37.6891 30.0588 37.5849 30.4294 37.5849 30.4294Z"
    fill="#040606" />
  <path
    d="M118.509 32.1306C118.541 32.14 118.299 31.5706 118.649 30.5506C118.829 30.0533 119.173 29.464 119.779 28.9533C120.369 28.4466 121.261 27.9946 122.363 28.028C123.441 28.052 124.601 28.56 125.483 29.4773C126.361 30.364 127.004 31.7986 126.877 33.3093C126.773 34.8066 126.04 36.2693 124.839 37.3386C123.616 38.432 121.915 38.9733 120.271 38.9106C118.623 38.8653 117.051 38.228 115.868 37.3026C114.672 36.3813 113.824 35.212 113.251 34.0266C112.083 31.6 112.185 29.0973 112.768 27.292C113.351 25.4453 114.428 24.2546 115.252 23.6506C115.672 23.3506 116.013 23.1533 116.261 23.0533C116.503 22.9466 116.629 22.8906 116.629 22.8906C116.629 22.8906 116.525 22.9813 116.327 23.1546C116.125 23.3146 115.859 23.5946 115.556 23.9666C114.96 24.7146 114.309 25.964 114.137 27.5946C113.955 29.208 114.241 31.188 115.328 32.8973C116.405 34.632 118.237 36.0626 120.364 36.1093C121.412 36.144 122.391 35.8506 123.111 35.2866C123.851 34.7146 124.375 33.872 124.528 33.0426C124.899 31.4053 123.569 29.6893 122.209 29.42C120.82 29.0893 119.523 30.008 119.04 30.7493C118.771 31.132 118.644 31.4906 118.581 31.7386C118.535 31.9946 118.509 32.1306 118.509 32.1306Z"
    fill="#040606" />
  <path
    d="M95.3448 19.4547C95.3448 18.3481 96.2407 17.4521 97.3465 17.4521C98.4517 17.4521 99.3479 18.3481 99.3479 19.4547C99.3479 20.5601 98.4517 21.4561 97.3465 21.4561C96.2407 21.4561 95.3448 20.5601 95.3448 19.4547Z"
    fill="#040606" />
  <path
    d="M118.476 31.7308C118.476 30.6255 119.372 29.7282 120.477 29.7282C121.583 29.7282 122.479 30.6255 122.479 31.7308C122.479 32.8362 121.583 33.7322 120.477 33.7322C119.372 33.7322 118.476 32.8362 118.476 31.7308Z"
    fill="#040606" />
  <path
    d="M50.5454 30.6041C50.5454 29.4988 51.4418 28.6028 52.547 28.6028C53.6527 28.6028 54.5485 29.4988 54.5485 30.6041C54.5485 31.7095 53.6527 32.6055 52.547 32.6055C51.4418 32.6055 50.5454 31.7095 50.5454 30.6041Z"
    fill="#040606" />
  <path
    d="M0.0339355 5.65882C0.0339355 4.55349 0.929803 3.65749 2.03554 3.65749C3.14074 3.65749 4.037 4.55349 4.037 5.65882C4.037 6.76415 3.14074 7.66016 2.03554 7.66016C0.929803 7.66016 0.0339355 6.76415 0.0339355 5.65882Z"
    fill="#040606" />
  <path
    d="M28.2771 13.7575C28.2771 12.6521 29.1735 11.7561 30.2787 11.7561C31.3844 11.7561 32.2803 12.6521 32.2803 13.7575C32.2803 14.8628 31.3844 15.7588 30.2787 15.7588C29.1735 15.7588 28.2771 14.8628 28.2771 13.7575Z"
    fill="#040606" />
  <path
    d="M185.547 17.6482C185.527 17.6695 185.964 17.7389 186.46 18.3362C186.931 18.9002 187.443 20.1202 186.871 21.5722C186.288 23.0242 184.217 24.0775 182.053 23.4829C179.855 22.8802 178.108 20.6175 177.628 17.9322C177.101 15.2309 177.844 12.0362 179.932 9.50419C182.003 6.91619 185.665 5.42151 189.348 5.75484C191.191 5.90951 193.061 6.4762 194.744 7.5122C196.409 8.55353 197.836 10.0135 198.896 11.7295C199.952 13.4495 200.648 15.4229 200.893 17.4989C201.131 19.5762 200.891 21.7562 200.167 23.7575C198.757 27.7908 195.672 31.0309 191.944 32.6095C188.185 34.1602 184.151 33.9442 180.793 32.9442C177.408 31.9309 174.501 30.3388 171.973 28.6588C169.432 26.9762 167.268 25.2055 165.308 23.5709C161.403 20.2762 158.508 17.3309 156.575 15.2469C154.641 13.1602 153.649 11.9415 153.649 11.9415C153.649 11.9415 154.772 13.0429 156.881 14.9349C158.991 16.8242 162.104 19.4909 166.173 22.4695C168.213 23.9455 170.468 25.5602 172.988 27.0349C175.501 28.5162 178.327 29.8709 181.409 30.6615C184.475 31.4442 187.871 31.4615 190.885 30.1455C193.849 28.8215 196.384 26.1162 197.524 22.8269C198.716 19.5575 198.268 15.9402 196.6 13.1135C195.771 11.7095 194.659 10.5175 193.373 9.65484C192.088 8.80818 190.603 8.2922 189.115 8.1082C186.119 7.72953 183.167 8.76952 181.375 10.7642C179.543 12.7429 178.719 15.4175 179.012 17.7175C179.256 20.0242 180.604 22.0242 182.319 22.6362C184.047 23.2722 185.88 22.5549 186.476 21.3829C187.091 20.1842 186.761 18.9842 186.363 18.4069C185.952 17.7909 185.525 17.6655 185.547 17.6482Z"
    fill="#040606" />
  <path
    d="M231.585 30.556C231.564 30.5653 231.512 30.204 231.189 29.6307C230.88 29.0587 230.237 28.288 229.149 27.728C228.073 27.196 226.517 26.8493 224.911 27.3187C223.304 27.7293 221.895 29.2427 221.536 31.2627C221.147 33.2387 221.731 35.7027 223.437 37.224C225.141 38.7893 227.86 39.424 230.44 38.8667C233.02 38.3453 235.348 36.4614 236.733 33.9067C238.096 31.3467 238.619 28.132 237.769 25.1947C236.961 22.2053 234.976 19.648 232.612 17.8173C230.221 15.9787 227.445 14.892 224.657 14.4734C219.033 13.6454 213.775 15.1653 209.825 17.0653C205.828 18.9973 202.917 21.2467 200.951 22.8094C198.988 24.396 197.956 25.3467 197.956 25.3467C197.956 25.3467 198.86 24.2773 200.659 22.484C202.468 20.7133 205.176 18.1587 209.171 15.8253C213.127 13.5413 218.613 11.4907 224.961 12.128C228.096 12.4533 231.4 13.5974 234.221 15.672C237.021 17.7347 239.459 20.7414 240.469 24.4454C241.529 28.176 240.829 32.104 239.075 35.2134C237.307 38.3294 234.231 40.6693 230.88 41.1907C227.599 41.744 224.219 40.7813 222.104 38.5987C219.948 36.368 219.525 33.312 220.172 30.9414C220.504 29.7427 221.113 28.6693 221.932 27.892C222.74 27.1053 223.757 26.632 224.704 26.4573C226.629 26.0907 228.269 26.6614 229.367 27.348C230.475 28.072 231.049 28.9574 231.297 29.5774C231.559 30.2 231.563 30.564 231.585 30.556Z"
    fill="#040606" />
  <path
    d="M252.076 11.8054C252.079 11.8281 251.719 11.7307 251.088 11.8867C250.471 12.0414 249.592 12.5667 249.035 13.636C248.759 14.1587 248.564 14.808 248.585 15.5014C248.621 16.188 248.896 16.9014 249.468 17.4547C250.548 18.572 252.719 19.0067 254.396 18.088C256.087 17.1827 257.121 14.8801 256.848 12.6121C256.576 10.3281 255.023 8.0747 252.857 6.42137C248.56 2.98804 241.855 1.95073 235.767 3.88273C229.608 5.85873 224.743 10.2587 221.327 14.8214C219.603 17.1174 218.144 19.556 216.492 21.6947C214.859 23.844 212.992 25.6814 210.976 26.8947C208.967 28.12 206.824 28.72 204.94 28.636C203.067 28.5574 201.533 27.9561 200.465 27.2387C199.38 26.5307 198.767 25.7107 198.421 25.1507C198.243 24.868 198.14 24.6374 198.073 24.4801C198.004 24.3254 197.968 24.2467 197.968 24.2467C198.003 24.1774 198.503 25.688 200.688 26.8614C201.759 27.4307 203.241 27.8361 204.933 27.7494C206.613 27.6707 208.484 26.9707 210.204 25.724C211.943 24.4814 213.517 22.7081 214.937 20.5747C216.38 18.4494 217.684 15.9694 219.403 13.4454C221.12 10.9267 223.239 8.46539 225.82 6.30806C228.393 4.15606 231.46 2.31206 234.919 1.21206C241.853 -0.990606 249.507 0.372042 254.356 4.59338C256.772 6.62271 258.58 9.43604 258.757 12.456C258.915 15.4214 257.416 18.2627 255.017 19.3441C252.605 20.3827 250.075 19.5707 248.808 18.0467C248.157 17.2947 247.888 16.3227 247.935 15.4934C247.993 14.6587 248.296 13.9561 248.66 13.4107C249.399 12.3001 250.407 11.8547 251.064 11.768C251.737 11.6854 252.076 11.8294 252.076 11.8054Z"
    fill="#040606" />
  <path
    d="M196.897 0.0681492C196.897 0.0681492 197.255 0.208145 197.876 0.530812C198.497 0.852145 199.368 1.39214 200.335 2.22814C202.257 3.85481 204.529 6.94815 205.075 11.0028C205.607 15.0588 204.221 18.6375 202.791 20.7095C202.075 21.7695 201.376 22.5175 200.86 22.9908C200.344 23.4641 200.036 23.6921 200.036 23.6921C200.036 23.6921 200.205 23.3455 200.507 22.7321C200.8 22.1188 201.176 21.2161 201.529 20.0975C202.248 17.8668 202.739 14.7068 202.296 11.3722C201.852 8.03749 200.555 5.11483 199.279 3.14816C198.645 2.1615 198.047 1.38682 197.603 0.872153C197.152 0.35882 196.897 0.0681492 196.897 0.0681492Z"
    fill="#040606" />
  <path
    d="M244.536 30.4294C244.536 30.4294 244.432 30.0588 244.247 29.4001C244.06 28.7454 243.747 27.8161 243.285 26.7321C242.372 24.5601 240.732 21.8121 238.325 19.4148C235.919 17.0188 233.163 15.3908 230.987 14.4881C229.901 14.0308 228.971 13.7215 228.316 13.5375C227.656 13.3548 227.284 13.2521 227.284 13.2521C227.284 13.2521 227.659 13.1748 228.355 13.1001C229.051 13.0254 230.071 12.9894 231.337 13.1308C233.839 13.3868 237.431 14.5734 240.303 17.4294C243.171 20.2881 244.373 23.8761 244.64 26.3761C244.787 27.6415 244.755 28.6628 244.683 29.3588C244.613 30.0548 244.536 30.4294 244.536 30.4294Z"
    fill="#040606" />
  <path
    d="M163.612 32.1306C163.612 32.1306 163.587 31.9946 163.54 31.7386C163.476 31.4906 163.349 31.132 163.081 30.7493C162.597 30.008 161.301 29.0893 159.912 29.42C158.551 29.6893 157.223 31.4066 157.593 33.0426C157.747 33.872 158.271 34.7146 159.011 35.2866C159.731 35.8506 160.708 36.144 161.757 36.1093C163.884 36.0626 165.715 34.632 166.792 32.8973C167.88 31.188 168.165 29.208 167.984 27.5946C167.812 25.964 167.161 24.7146 166.564 23.9666C166.261 23.5946 165.996 23.3146 165.793 23.1546C165.596 22.9813 165.492 22.8906 165.492 22.8906C165.492 22.8906 165.619 22.9466 165.859 23.0533C166.107 23.1533 166.449 23.3506 166.868 23.6506C167.692 24.2546 168.771 25.444 169.352 27.292C169.936 29.0973 170.039 31.6 168.869 34.0266C168.296 35.212 167.449 36.3813 166.252 37.3026C165.069 38.228 163.497 38.8653 161.849 38.9106C160.207 38.9733 158.504 38.432 157.283 37.3386C156.08 36.2693 155.347 34.8066 155.244 33.3093C155.117 31.7986 155.76 30.364 156.639 29.4773C157.519 28.56 158.68 28.0506 159.759 28.028C160.86 27.9946 161.751 28.4466 162.341 28.9533C162.947 29.464 163.291 30.0533 163.472 30.5506C163.821 31.5706 163.579 32.14 163.612 32.1306Z"
    fill="#040606" />
  <path
    d="M186.776 19.4547C186.776 18.3481 185.88 17.4521 184.775 17.4521C183.669 17.4521 182.773 18.3481 182.773 19.4547C182.773 20.5601 183.669 21.4561 184.775 21.4561C185.88 21.4561 186.776 20.5601 186.776 19.4547Z"
    fill="#040606" />
  <path
    d="M163.645 31.7308C163.645 30.6255 162.748 29.7282 161.643 29.7282C160.537 29.7282 159.641 30.6255 159.641 31.7308C159.641 32.8362 160.537 33.7322 161.643 33.7322C162.748 33.7322 163.645 32.8362 163.645 31.7308Z"
    fill="#040606" />
  <path
    d="M231.576 30.6041C231.576 29.4988 230.679 28.6028 229.573 28.6028C228.468 28.6028 227.572 29.4988 227.572 30.6041C227.572 31.7095 228.468 32.6055 229.573 32.6055C230.679 32.6055 231.576 31.7095 231.576 30.6041Z"
    fill="#040606" />
  <path
    d="M253.844 13.7575C253.844 12.6521 252.948 11.7561 251.841 11.7561C250.736 11.7561 249.84 12.6521 249.84 13.7575C249.84 14.8628 250.736 15.7588 251.841 15.7588C252.948 15.7588 253.844 14.8628 253.844 13.7575Z"
    fill="#040606" />
  <path d="M29.7516 6.3335L3.03601 5.32549L29.7235 3.73216L29.7516 6.3335Z" fill="#040606" />
  <path
    d="M284.784 5.65882C284.784 4.55349 283.888 3.65749 282.783 3.65749C281.677 3.65749 280.781 4.55349 280.781 5.65882C280.781 6.76415 281.677 7.66016 282.783 7.66016C283.888 7.66016 284.784 6.76415 284.784 5.65882Z"
    fill="#040606" />
  <path d="M253.76 3.73216L281.781 5.32549L253.733 6.3335L253.76 3.73216Z" fill="#040606" />
  <path
    d="M131.856 25.6507C131.845 25.656 131.828 25.4587 131.637 25.1827C131.449 24.9134 131.032 24.6014 130.428 24.5494C129.823 24.4867 129.101 24.7027 128.737 25.4094C128.361 26.0721 128.349 27.0827 128.752 27.9667C129.169 28.8587 129.988 29.6347 131.075 30.0481C132.151 30.4601 133.472 30.512 134.571 30.0507C135.663 29.5907 136.601 28.5667 137.107 27.296C137.615 26.016 137.699 24.5214 137.213 23.1787C136.736 21.8027 135.768 20.6054 134.604 19.732C133.441 18.844 132.1 18.3174 130.725 18.068C127.959 17.5747 125.263 18.148 123.165 18.96C121.043 19.7787 119.42 20.7814 118.313 21.4787C117.207 22.1881 116.609 22.6134 116.609 22.6134C116.609 22.6134 117.087 22.06 118.041 21.136C119.001 20.2214 120.439 18.9054 122.565 17.6934C124.673 16.5014 127.595 15.4214 131.04 15.724C134.427 15.9854 138.383 18.1587 139.859 22.2534C141.32 26.388 139.119 31.0587 135.368 32.2774C131.629 33.3894 128.152 31.128 127.431 28.4334C127.064 27.1 127.301 25.7707 128.013 24.9C128.355 24.4747 128.827 24.1694 129.293 24.072C129.752 23.9654 130.171 24.016 130.516 24.12C131.219 24.328 131.608 24.7934 131.743 25.124C131.879 25.4627 131.843 25.6534 131.856 25.6507Z"
    fill="#040606" />
  <path
    d="M149.036 25.6507C149.049 25.6534 149.013 25.4627 149.149 25.124C149.284 24.7934 149.673 24.328 150.376 24.12C150.721 24.016 151.14 23.9654 151.597 24.072C152.065 24.1694 152.537 24.4747 152.879 24.9C153.591 25.7707 153.828 27.1 153.461 28.4334C152.74 31.128 149.263 33.3894 145.524 32.2774C141.773 31.0587 139.572 26.388 141.032 22.2534C142.509 18.1587 146.464 15.9854 149.852 15.724C153.297 15.4214 156.219 16.5014 158.325 17.6934C160.452 18.9054 161.891 20.2214 162.851 21.136C163.805 22.06 164.283 22.6134 164.283 22.6134C164.283 22.6134 163.685 22.1881 162.579 21.4787C161.472 20.7814 159.849 19.7787 157.727 18.96C155.629 18.148 152.933 17.5747 150.167 18.068C148.792 18.3174 147.451 18.844 146.287 19.732C145.124 20.6054 144.156 21.8027 143.677 23.1787C143.193 24.5214 143.277 26.016 143.784 27.296C144.289 28.5667 145.228 29.5907 146.321 30.0507C147.42 30.512 148.741 30.4601 149.816 30.0481C150.903 29.6347 151.723 28.8587 152.14 27.9667C152.541 27.0827 152.531 26.0721 152.153 25.4094C151.791 24.7027 151.068 24.4867 150.464 24.5494C149.86 24.6014 149.443 24.9134 149.255 25.1827C149.064 25.4587 149.047 25.656 149.036 25.6507Z"
    fill="#040606" />
  <path
    d="M266.184 14.144C266.184 14.144 266.019 13.9614 265.733 13.6454C265.463 13.3227 265.037 12.8867 264.527 12.388C263.5 11.376 262.04 10.212 260.372 9.08402C258.696 7.96668 257.065 7.05736 255.741 6.48936C255.087 6.20536 254.521 5.97738 254.12 5.84938C253.72 5.70405 253.488 5.62002 253.488 5.62002C253.488 5.62002 253.711 5.53604 254.132 5.41204C254.553 5.27738 255.18 5.15604 255.973 5.10804C257.548 4.99871 259.863 5.37202 261.933 6.75736C264 8.15069 265.223 10.1507 265.717 11.6494C265.973 12.4027 266.099 13.028 266.133 13.4694C266.177 13.9067 266.184 14.144 266.184 14.144Z"
    fill="#040606" />
  <path
    d="M18.2694 15.2373C18.2694 15.2373 18.1949 15.0253 18.0886 14.6133C17.9683 14.2026 17.8959 13.5826 17.9413 12.804C17.9766 12.02 18.2094 11.0946 18.6579 10.1386C19.1293 9.20131 19.835 8.24797 20.7787 7.47197C21.7345 6.71064 22.8146 6.21996 23.8293 5.95462C24.8589 5.71596 25.8115 5.68131 26.5861 5.81065C27.3574 5.92798 27.9474 6.12797 28.3246 6.33197C28.7047 6.5213 28.897 6.63864 28.897 6.63864C28.897 6.63864 28.6651 6.6853 28.2662 6.7653C27.8761 6.8253 27.3198 6.98397 26.7006 7.20664C25.4418 7.64797 23.9703 8.50662 22.5413 9.65062C21.1241 10.8093 19.9771 12.0693 19.2829 13.208C18.9365 13.768 18.6646 14.2773 18.5251 14.6466C18.3637 15.02 18.2694 15.2373 18.2694 15.2373Z"
    fill="#040606" />
</svg>
  