<svg width="285" height="42" viewBox="0 0 285 42" fill="none" xmlns="http://www.w3.org/2000/svg">
  <path
    d="M186.909 23.9333C186.888 23.916 187.315 23.792 187.725 23.1747C188.124 22.5973 188.453 21.3986 187.839 20.1986C187.243 19.0266 185.409 18.3093 183.681 18.9453C181.967 19.5573 180.619 21.5573 180.375 23.864C180.081 26.164 180.904 28.8386 182.737 30.8173C184.529 32.812 187.481 33.852 190.476 33.4733C191.965 33.2893 193.451 32.7733 194.736 31.9266C196.021 31.0653 197.133 29.8733 197.963 28.468C199.631 25.6426 200.079 22.024 198.887 18.7546C197.747 15.4653 195.212 12.76 192.248 11.436C189.233 10.12 185.837 10.1373 182.772 10.92C179.689 11.7106 176.864 13.0653 174.351 14.548C171.831 16.0213 169.576 17.6373 167.536 19.112C163.467 22.0907 160.353 24.7573 158.244 26.648C156.135 28.5387 155.012 29.64 155.012 29.64C155.012 29.64 156.004 28.4213 157.937 26.3347C159.871 24.2507 162.765 21.3053 166.671 18.0107C168.631 16.376 170.795 14.6053 173.336 12.9226C175.864 11.2426 178.771 9.65065 182.156 8.63732C185.513 7.63732 189.549 7.42132 193.307 8.97199C197.035 10.552 200.12 13.7906 201.529 17.824C202.253 19.8266 202.493 22.0053 202.256 24.0827C202.011 26.1587 201.315 28.132 200.259 29.852C199.199 31.568 197.772 33.028 196.105 34.0693C194.424 35.1053 192.553 35.672 190.711 35.8266C187.027 36.16 183.365 34.6653 181.293 32.0773C179.207 29.5453 178.463 26.3507 178.991 23.6493C179.471 20.964 181.217 18.7013 183.416 18.1C185.58 17.504 187.651 18.5587 188.233 20.0107C188.805 21.4627 188.293 22.6813 187.823 23.2453C187.327 23.8427 186.889 23.912 186.909 23.9333Z"
    fill="#040606" />
  <path
    d="M232.948 11.0255C232.925 11.0175 232.921 11.3815 232.66 12.0042C232.412 12.6242 231.837 13.5095 230.729 14.2335C229.632 14.9202 227.992 15.4908 226.067 15.1242C225.12 14.9495 224.103 14.4762 223.295 13.6895C222.476 12.9122 221.867 11.8388 221.535 10.6402C220.888 8.26951 221.311 5.21352 223.467 2.98285C225.581 0.800188 228.961 -0.162503 232.243 0.39083C235.593 0.912164 238.669 3.25217 240.437 6.36817C242.192 9.47751 242.892 13.4055 241.832 17.1362C240.821 20.8402 238.383 23.8468 235.584 25.9095C232.763 27.9842 229.459 29.1295 226.324 29.4535C219.976 30.0908 214.489 28.0402 210.533 25.7562C206.539 23.4228 203.831 20.8682 202.021 19.0975C200.223 17.3055 199.319 16.2348 199.319 16.2348C199.319 16.2348 200.351 17.1855 202.313 18.7722C204.28 20.3348 207.191 22.5842 211.188 24.5175C215.137 26.4162 220.396 27.9375 226.02 27.1082C228.808 26.6908 231.584 25.6028 233.975 23.7642C236.339 21.9335 238.324 19.3762 239.132 16.3868C239.981 13.4495 239.459 10.2348 238.096 7.67618C236.711 5.12018 234.383 3.23619 231.803 2.71485C229.223 2.15752 226.504 2.79216 224.8 4.3575C223.093 5.87883 222.509 8.34282 222.899 10.3188C223.257 12.3388 224.667 13.8522 226.272 14.2628C227.88 14.7322 229.436 14.3855 230.512 13.8535C231.6 13.2935 232.243 12.5242 232.552 11.9508C232.875 11.3775 232.927 11.0162 232.948 11.0255Z"
    fill="#040606" />
  <path
    d="M253.439 29.7761C253.439 29.7521 253.1 29.8961 252.427 29.8134C251.769 29.7268 250.761 29.2814 250.023 28.1708C249.659 27.6254 249.356 26.9228 249.297 26.0881C249.251 25.2601 249.52 24.2868 250.171 23.5348C251.437 22.0108 253.968 21.1988 256.38 22.2374C258.779 23.3201 260.277 26.1601 260.12 29.1254C259.943 32.1454 258.135 34.9601 255.719 36.9894C250.869 41.2094 243.216 42.5721 236.281 40.3708C232.823 39.2694 229.756 37.4254 227.183 35.2734C224.601 33.1161 222.483 30.6561 220.765 28.1361C219.047 25.6134 217.743 23.1321 216.3 21.0068C214.88 18.8748 213.305 17.1014 211.567 15.8574C209.847 14.6108 207.976 13.9121 206.296 13.8321C204.604 13.7454 203.121 14.1508 202.051 14.7201C199.865 15.8934 199.365 17.4041 199.331 17.3348C199.331 17.3348 199.367 17.2561 199.436 17.1014C199.503 16.9454 199.605 16.7134 199.784 16.4308C200.129 15.8708 200.743 15.0508 201.828 14.3441C202.896 13.6254 204.429 13.0254 206.303 12.9454C208.187 12.8614 210.329 13.4614 212.337 14.6868C214.355 15.9001 216.221 17.7374 217.855 19.8868C219.507 22.0254 220.965 24.4641 222.688 26.7601C226.105 31.3228 230.971 35.7228 237.129 37.6988C243.217 39.6308 249.923 38.5934 254.22 35.1601C256.385 33.5068 257.939 31.2534 258.211 28.9694C258.484 26.7014 257.449 24.3988 255.759 23.4934C254.081 22.5748 251.911 23.0094 250.831 24.1268C250.259 24.6801 249.984 25.3934 249.948 26.0801C249.927 26.7734 250.121 27.4228 250.397 27.9454C250.955 29.0148 251.833 29.5401 252.451 29.6948C253.081 29.8508 253.441 29.7534 253.439 29.7761Z"
    fill="#040606" />
  <path
    d="M198.26 41.5134C198.26 41.5134 198.515 41.2228 198.965 40.7094C199.409 40.1948 200.008 39.4201 200.641 38.4334C201.917 36.4667 203.215 33.5441 203.659 30.2094C204.101 26.8748 203.611 23.7161 202.892 21.4841C202.539 20.3667 202.163 19.4628 201.869 18.8494C201.568 18.2361 201.399 17.8894 201.399 17.8894C201.399 17.8894 201.707 18.1174 202.223 18.5907C202.739 19.0641 203.437 19.8121 204.153 20.8721C205.584 22.9441 206.969 26.5228 206.436 30.5788C205.892 34.6334 203.62 37.7267 201.697 39.3534C200.731 40.1894 199.86 40.7294 199.239 41.0507C198.617 41.3734 198.26 41.5134 198.26 41.5134Z"
    fill="#040606" />
  <path
    d="M245.899 11.1521C245.899 11.1521 245.976 11.5268 246.045 12.2228C246.117 12.9188 246.149 13.9401 246.003 15.2054C245.736 17.7054 244.533 21.2934 241.665 24.1521C238.793 27.0081 235.201 28.1961 232.7 28.4508C231.433 28.5921 230.413 28.5561 229.717 28.4815C229.021 28.4081 228.647 28.3294 228.647 28.3294C228.647 28.3294 229.019 28.2268 229.679 28.0455C230.333 27.8601 231.264 27.5508 232.349 27.0934C234.525 26.1908 237.281 24.5628 239.688 22.1668C242.095 19.7708 243.735 17.0215 244.648 14.8495C245.109 13.7655 245.423 12.8375 245.609 12.1815C245.795 11.5241 245.899 11.1521 245.899 11.1521Z"
    fill="#040606" />
  <path
    d="M164.975 9.45189C164.941 9.44256 165.184 10.0106 164.833 11.0306C164.653 11.5279 164.309 12.1172 163.704 12.6279C163.113 13.1346 162.223 13.5866 161.121 13.5546C160.043 13.5306 158.881 13.0212 158.001 12.1039C157.123 11.2172 156.48 9.78257 156.607 8.27191C156.709 6.77457 157.443 5.31191 158.645 4.24258C159.867 3.14925 161.569 2.60791 163.213 2.67057C164.86 2.71591 166.432 3.35325 167.615 4.27858C168.812 5.19991 169.659 6.36922 170.232 7.55456C171.401 9.98122 171.299 12.4839 170.715 14.2892C170.133 16.1372 169.055 17.3266 168.231 17.9306C167.812 18.2319 167.469 18.4279 167.221 18.5279C166.981 18.6346 166.855 18.6919 166.855 18.6919C166.855 18.6919 166.959 18.5999 167.156 18.4279C167.359 18.2666 167.624 17.9866 167.927 17.6159C168.524 16.8666 169.175 15.6186 169.347 13.9879C169.528 12.3732 169.243 10.3932 168.155 8.68389C167.077 6.94922 165.247 5.51858 163.12 5.47191C162.071 5.43724 161.093 5.73056 160.373 6.29456C159.633 6.86656 159.109 7.71057 158.956 8.53857C158.585 10.1759 159.913 11.8919 161.275 12.1612C162.664 12.4919 163.96 11.5732 164.444 10.8319C164.712 10.4506 164.839 10.0906 164.903 9.84258C164.949 9.58658 164.975 9.45189 164.975 9.45189Z"
    fill="#040606" />
  <path
    d="M188.139 22.1267C188.139 23.2334 187.243 24.1294 186.137 24.1294C185.032 24.1294 184.136 23.2334 184.136 22.1267C184.136 21.0214 185.032 20.1254 186.137 20.1254C187.243 20.1254 188.139 21.0214 188.139 22.1267Z"
    fill="#040606" />
  <path
    d="M165.007 9.85085C165.007 10.9562 164.111 11.8535 163.005 11.8535C161.9 11.8535 161.004 10.9562 161.004 9.85085C161.004 8.74551 161.9 7.84954 163.005 7.84954C164.111 7.84954 165.007 8.74551 165.007 9.85085Z"
    fill="#040606" />
  <path
    d="M232.939 10.9774C232.939 12.0828 232.041 12.9788 230.936 12.9788C229.831 12.9788 228.935 12.0828 228.935 10.9774C228.935 9.87209 229.831 8.97609 230.936 8.97609C232.041 8.97609 232.939 9.87209 232.939 10.9774Z"
    fill="#040606" />
  <path
    d="M284.783 35.9227C284.783 37.0281 283.887 37.9241 282.781 37.9241C281.676 37.9241 280.78 37.0281 280.78 35.9227C280.78 34.8174 281.676 33.9214 282.781 33.9214C283.887 33.9214 284.783 34.8174 284.783 35.9227Z"
    fill="#040606" />
  <path
    d="M255.207 27.8241C255.207 28.9294 254.311 29.8254 253.204 29.8254C252.099 29.8254 251.203 28.9294 251.203 27.8241C251.203 26.7188 252.099 25.8228 253.204 25.8228C254.311 25.8228 255.207 26.7188 255.207 27.8241Z"
    fill="#040606" />
  <path
    d="M97.9364 23.9333C97.9568 23.912 97.5197 23.8427 97.024 23.2453C96.5527 22.6813 96.0412 21.4613 96.6125 20.0093C97.1959 18.5587 99.2667 17.504 101.43 18.1C103.629 18.7013 105.376 20.964 105.856 23.6493C106.383 26.3507 105.639 29.5453 103.552 32.0773C101.48 34.6653 97.8188 36.16 94.1355 35.8266C92.2921 35.672 90.4219 35.1053 88.7401 34.0693C87.074 33.028 85.6469 31.568 84.5869 29.852C83.5317 28.132 82.8349 26.1587 82.5907 24.0827C82.3527 22.0053 82.5932 19.8266 83.3161 17.824C84.7255 13.7906 87.812 10.552 91.5391 8.97199C95.2973 7.42132 99.3328 7.63732 102.689 8.63732C106.075 9.65065 108.983 11.2426 111.511 12.9226C114.052 14.6053 116.215 16.376 118.176 18.0107C122.08 21.3053 124.976 24.2507 126.909 26.3347C128.843 28.4213 129.833 29.64 129.833 29.64C129.833 29.64 128.712 28.5387 126.601 26.648C124.493 24.7573 121.379 22.0907 117.309 19.112C115.269 17.6373 113.016 16.0213 110.496 14.548C107.981 13.0653 105.157 11.7106 102.075 10.92C99.0084 10.1373 95.6131 10.12 92.5984 11.436C89.6344 12.76 87.0989 15.4653 85.9593 18.7546C84.7683 22.024 85.2156 25.6426 86.8839 28.468C87.7125 29.872 88.824 31.064 90.1104 31.9266C91.3953 32.7733 92.8803 33.2893 94.3693 33.4733C97.3645 33.852 100.317 32.812 102.109 30.8173C103.941 28.8386 104.765 26.164 104.471 23.864C104.228 21.5586 102.879 19.5573 101.165 18.9453C99.4369 18.3093 97.6031 19.0266 97.0079 20.1986C96.3921 21.3986 96.7224 22.5973 97.1208 23.1747C97.5317 23.792 97.9579 23.916 97.9364 23.9333Z"
    fill="#040606" />
  <path
    d="M51.8973 11.0255C51.9193 11.0162 51.9713 11.3775 52.2943 11.9508C52.6031 12.5242 53.2459 13.2935 54.3339 13.8535C55.4104 14.3855 56.9656 14.7322 58.5735 14.2628C60.1787 13.8522 61.5885 12.3388 61.9473 10.3188C62.3364 8.34282 61.7521 5.87883 60.0464 4.3575C58.3421 2.79216 55.624 2.15752 53.0427 2.71485C50.4631 3.23619 48.1355 5.12018 46.75 7.67618C45.3869 10.2348 44.8651 13.4495 45.714 16.3868C46.5224 19.3762 48.5079 21.9335 50.8708 23.7642C53.2625 25.6028 56.0375 26.6908 58.826 27.1082C64.45 27.9375 69.7088 26.4162 73.6584 24.5175C77.6557 22.5842 80.5656 20.3348 82.5328 18.7722C84.4948 17.1855 85.5276 16.2348 85.5276 16.2348C85.5276 16.2348 84.6235 17.3055 82.8245 19.0975C81.0156 20.8682 78.3073 23.4228 74.3131 25.7562C70.3568 28.0402 64.8703 30.0908 58.5224 29.4535C55.3869 29.1295 52.0833 27.9842 49.262 25.9095C46.4631 23.8468 44.0251 20.8402 43.014 17.1362C41.9536 13.4055 42.6541 9.47751 44.4084 6.36817C46.1765 3.25217 49.2531 0.912164 52.6036 0.39083C55.8849 -0.162503 59.2651 0.800188 61.3803 2.98285C63.5355 5.21352 63.9579 8.26951 63.3115 10.6402C62.9792 11.8388 62.3703 12.9122 61.5516 13.6895C60.7432 14.4762 59.7265 14.9495 58.7803 15.1242C56.8547 15.4908 55.2145 14.9202 54.1161 14.2335C53.0088 13.5095 52.4339 12.6242 52.186 12.0042C51.9251 11.3815 51.9203 11.0175 51.8973 11.0255Z"
    fill="#040606" />
  <path
    d="M31.4079 29.7761C31.4052 29.7534 31.764 29.8508 32.3948 29.6948C33.0126 29.5401 33.8912 29.0148 34.4484 27.9454C34.7246 27.4228 34.9194 26.7734 34.8984 26.0801C34.8615 25.3934 34.5875 24.6801 34.0151 24.1268C32.935 23.0094 30.7651 22.5748 29.0875 23.4934C27.3964 24.3988 26.3626 26.7014 26.636 28.9694C26.9079 31.2534 28.461 33.5068 30.6266 35.1601C34.923 38.5934 41.6292 39.6308 47.7167 37.6988C53.8755 35.7228 58.7407 31.3228 62.1574 26.7601C63.8812 24.4641 65.3402 22.0254 66.9918 19.8868C68.624 17.7374 70.4912 15.9001 72.5084 14.6868C74.5167 13.4614 76.6594 12.8614 78.5438 12.9454C80.4167 13.0254 81.9506 13.6254 83.0178 14.3441C84.1031 15.0508 84.7167 15.8708 85.062 16.4308C85.2402 16.7134 85.3432 16.9454 85.4099 17.1014C85.4798 17.2561 85.5151 17.3348 85.5151 17.3348C85.4803 17.4041 84.9812 15.8934 82.7948 14.7201C81.7255 14.1508 80.2418 13.7454 78.55 13.8321C76.8703 13.9121 75 14.6121 73.2798 15.8574C71.5402 17.1014 69.9662 18.8748 68.5459 21.0068C67.1031 23.1321 65.7995 25.6134 64.0803 28.1361C62.3636 30.6561 60.2448 33.1161 57.6636 35.2734C55.0896 37.4254 52.0235 39.2694 48.5646 40.3708C41.6298 42.5721 33.9766 41.2094 29.1271 36.9894C26.7115 34.9601 24.9031 32.1454 24.7266 29.1254C24.5688 26.1601 26.0672 23.3201 28.4662 22.2374C30.8776 21.1988 33.4094 22.0108 34.6751 23.5348C35.3255 24.2868 35.5948 25.2601 35.5484 26.0881C35.4902 26.9228 35.188 27.6254 34.824 28.1708C34.0855 29.2814 33.0771 29.7268 32.4194 29.8134C31.7464 29.8961 31.4079 29.7521 31.4079 29.7761Z"
    fill="#040606" />
  <path
    d="M86.586 41.5134C86.586 41.5134 86.2292 41.3734 85.6079 41.0507C84.9855 40.7294 84.1151 40.1894 83.1484 39.3534C81.226 37.7267 78.9536 34.6334 78.4093 30.5788C77.876 26.5228 79.2625 22.9441 80.6932 20.8721C81.4084 19.8121 82.1073 19.0641 82.624 18.5907C83.1396 18.1174 83.4473 17.8894 83.4473 17.8894C83.4473 17.8894 83.2781 18.2361 82.9771 18.8494C82.6828 19.4628 82.3068 20.3667 81.9536 21.4841C81.2355 23.7161 80.7453 26.8748 81.1875 30.2094C81.6312 33.5441 82.9292 36.4667 84.2052 38.4334C84.838 39.4201 85.4369 40.1948 85.8812 40.7094C86.3317 41.2228 86.586 41.5134 86.586 41.5134Z"
    fill="#040606" />
  <path
    d="M38.9473 11.1521C38.9473 11.1521 39.0516 11.5241 39.236 12.1815C39.424 12.8375 39.7369 13.7655 40.1984 14.8495C41.112 17.0215 42.7511 19.7708 45.1579 22.1668C47.5645 24.5628 50.3208 26.1908 52.4969 27.0934C53.5823 27.5508 54.5125 27.8601 55.1683 28.0455C55.8276 28.2268 56.1995 28.3294 56.1995 28.3294C56.1995 28.3294 55.8245 28.4081 55.1287 28.4815C54.4333 28.5561 53.4125 28.5921 52.1469 28.4508C49.6453 28.1961 46.0527 27.0081 43.1807 24.1521C40.3125 21.2934 39.1093 17.7054 38.8437 15.2054C38.6969 13.9401 38.7281 12.9188 38.8005 12.2228C38.8703 11.5268 38.9473 11.1521 38.9473 11.1521Z"
    fill="#040606" />
  <path
    d="M119.872 9.45189C119.872 9.45189 119.896 9.58658 119.944 9.84258C120.007 10.0906 120.133 10.4506 120.403 10.8319C120.885 11.5732 122.183 12.4919 123.572 12.1612C124.932 11.8919 126.261 10.1759 125.891 8.53857C125.737 7.71057 125.213 6.86656 124.473 6.29456C123.752 5.73056 122.775 5.43724 121.727 5.47191C119.6 5.51858 117.768 6.94922 116.691 8.68389C115.604 10.3932 115.317 12.3732 115.5 13.9879C115.672 15.6186 116.323 16.8666 116.919 17.6159C117.221 17.9866 117.488 18.2666 117.689 18.4279C117.888 18.5999 117.992 18.6919 117.992 18.6919C117.992 18.6919 117.865 18.6346 117.624 18.5279C117.376 18.4279 117.035 18.2319 116.615 17.9306C115.791 17.3279 114.713 16.1372 114.131 14.2892C113.548 12.4839 113.445 9.98122 114.613 7.55456C115.187 6.36922 116.035 5.19991 117.231 4.27858C118.413 3.35325 119.985 2.71591 121.633 2.67057C123.276 2.60791 124.979 3.14925 126.201 4.24258C127.403 5.31191 128.136 6.77457 128.24 8.27191C128.367 9.78257 127.724 11.2172 126.845 12.1039C125.964 13.0212 124.804 13.5306 123.725 13.5546C122.624 13.5866 121.732 13.1346 121.141 12.6279C120.536 12.1172 120.192 11.5279 120.012 11.0306C119.661 10.0106 119.904 9.44256 119.872 9.45189Z"
    fill="#040606" />
  <path
    d="M96.7074 22.1267C96.7074 23.2334 97.6031 24.1294 98.7089 24.1294C99.8141 24.1294 100.71 23.2334 100.71 22.1267C100.71 21.0214 99.8141 20.1254 98.7089 20.1254C97.6031 20.1254 96.7074 21.0214 96.7074 22.1267Z"
    fill="#040606" />
  <path
    d="M119.839 9.85085C119.839 10.9562 120.735 11.8535 121.84 11.8535C122.945 11.8535 123.841 10.9562 123.841 9.85085C123.841 8.74551 122.945 7.84954 121.84 7.84954C120.735 7.84954 119.839 8.74551 119.839 9.85085Z"
    fill="#040606" />
  <path
    d="M51.908 10.9774C51.908 12.0828 52.8042 12.9788 53.9094 12.9788C55.0152 12.9788 55.9116 12.0828 55.9116 10.9774C55.9116 9.87209 55.0152 8.97609 53.9094 8.97609C52.8042 8.97609 51.908 9.87209 51.908 10.9774Z"
    fill="#040606" />
  <path
    d="M29.6396 27.8241C29.6396 28.9294 30.536 29.8254 31.6412 29.8254C32.747 29.8254 33.6432 28.9294 33.6432 27.8241C33.6432 26.7188 32.747 25.8228 31.6412 25.8228C30.536 25.8228 29.6396 26.7188 29.6396 27.8241Z"
    fill="#040606" />
  <path
    d="M143.919 38.0029C143.919 38.0029 144.205 37.9482 144.753 37.8429C145.028 37.8015 145.361 37.7282 145.747 37.6015C146.135 37.4909 146.58 37.3655 147.056 37.1495C148.965 36.4095 151.612 34.6975 153.391 31.5762C154.259 30.0282 154.929 28.1655 155.059 26.1149C155.183 24.0775 154.92 21.8495 153.961 19.8015C153.052 17.7469 151.523 15.8388 149.505 14.5268C147.513 13.1682 145.028 12.4975 142.505 12.6055C139.988 12.7775 137.592 13.7202 135.763 15.2908C133.904 16.8188 132.595 18.8842 131.919 21.0268C131.193 23.1695 131.179 25.4122 131.528 27.4228C131.884 29.4482 132.757 31.2242 133.791 32.6655C135.905 35.5709 138.725 36.9802 140.705 37.5029C141.201 37.6642 141.659 37.7402 142.056 37.8069C142.453 37.8909 142.793 37.9255 143.071 37.9375C143.625 37.9802 143.919 38.0029 143.919 38.0029C143.919 38.0029 143.625 38.0269 143.068 38.0735C142.788 38.1055 142.441 38.1242 142.029 38.1002C141.616 38.0935 141.137 38.0842 140.605 37.9922C138.497 37.7402 135.275 36.6709 132.555 33.6735C131.225 32.1869 130.023 30.2482 129.405 27.9242C128.795 25.6175 128.612 22.9522 129.328 20.2895C129.993 17.6348 131.484 14.9882 133.765 12.9802C136.005 10.9295 139.091 9.62417 142.329 9.41884C145.569 9.26417 148.78 10.2189 151.233 12.0082C153.724 13.7509 155.499 16.2175 156.455 18.7815C157.461 21.3482 157.576 24.0175 157.224 26.3762C156.868 28.7549 155.888 30.8149 154.732 32.4402C152.36 35.7215 149.276 37.1402 147.209 37.6242C146.691 37.7748 146.216 37.8375 145.807 37.8895C145.4 37.9588 145.052 37.9802 144.771 37.9789C144.212 37.9949 143.919 38.0029 143.919 38.0029Z"
    fill="#040606" />
  <path d="M253.732 35.248L281.781 36.256L253.76 37.8494L253.732 35.248Z" fill="#040606" />
  <path
    d="M0.0328369 35.9227C0.0328369 37.0281 0.928703 37.9241 2.03444 37.9241C3.13964 37.9241 4.03603 37.0281 4.03603 35.9227C4.03603 34.8174 3.13964 33.9214 2.03444 33.9214C0.928703 33.9214 0.0328369 34.8174 0.0328369 35.9227Z"
    fill="#040606" />
  <path d="M29.7224 37.8494L3.03491 36.256L29.751 35.248L29.7224 37.8494Z" fill="#040606" />
  <path
    d="M267.184 27.6654C267.184 27.6654 267.177 27.9027 267.133 28.3414C267.099 28.7814 266.973 29.4067 266.717 30.16C266.223 31.6587 265 33.6587 262.933 35.052C260.863 36.4374 258.548 36.8107 256.973 36.7014C256.18 36.6534 255.553 36.532 255.132 36.3974C254.711 36.2734 254.488 36.1894 254.488 36.1894C254.488 36.1894 254.72 36.1054 255.12 35.96C255.521 35.832 256.087 35.604 256.741 35.32C258.065 34.752 259.696 33.8427 261.372 32.7254C263.04 31.5974 264.5 30.4334 265.527 29.4227C266.037 28.924 266.463 28.4867 266.733 28.164C267.019 27.848 267.184 27.6654 267.184 27.6654Z"
    fill="#040606" />
  <path
    d="M19.2694 26.5721C19.2694 26.5721 19.3637 26.7894 19.5251 27.1627C19.6646 27.532 19.9365 28.0427 20.2829 28.6014C20.9771 29.7414 22.1241 31 23.5413 32.1587C24.9703 33.3027 26.4418 34.1614 27.7011 34.6027C28.3198 34.8254 28.8761 34.9841 29.2662 35.0441C29.6651 35.1241 29.897 35.1707 29.897 35.1707C29.897 35.1707 29.7047 35.2881 29.3246 35.4774C28.9474 35.6814 28.3574 35.8814 27.5861 36.0001C26.8115 36.1281 25.8589 36.0934 24.8293 35.8547C23.8146 35.5894 22.735 35.0987 21.7787 34.3374C20.835 33.5614 20.1293 32.6081 19.6579 31.6707C19.2094 30.7147 18.9766 29.7894 18.9413 29.0054C18.8959 28.2267 18.9683 27.608 19.0886 27.196C19.1949 26.784 19.2694 26.5721 19.2694 26.5721Z"
    fill="#040606" />
  <path
    d="M144.537 26.3681C145.333 25.8855 145.867 25.0108 145.867 24.0121L145.472 17.5601C145.456 17.3148 145.253 17.1228 145.007 17.1228C144.74 17.1228 144.528 17.3468 144.541 17.6121L144.797 22.7855C144.797 23.0775 144.561 23.3121 144.271 23.3121C143.98 23.3121 143.744 23.0761 143.744 22.7855L143.616 17.6148C143.609 17.3415 143.385 17.1228 143.112 17.1228C142.839 17.1228 142.616 17.3415 142.609 17.6148L142.48 22.7855C142.48 23.0775 142.245 23.3121 141.953 23.3121C141.663 23.3121 141.428 23.0761 141.428 22.7855L141.684 17.6121C141.697 17.3468 141.485 17.1228 141.219 17.1228C140.972 17.1228 140.768 17.3148 140.753 17.5601L140.359 24.0121C140.359 25.0108 140.891 25.8855 141.688 26.3681C142.205 26.6828 142.495 27.2695 142.428 27.8721C141.979 31.9255 141.673 38.5415 141.673 39.2628C141.673 39.3428 141.683 39.4188 141.691 39.4961C141.821 39.5815 141.94 39.7001 142.04 39.8561C142.347 40.3388 142.737 40.7508 143.137 41.1548C143.92 41.1375 144.552 40.2988 144.552 39.2628C144.552 38.5415 144.247 31.9255 143.796 27.8721C143.729 27.2695 144.019 26.6828 144.537 26.3681Z"
    fill="#040606" />
</svg>
  